<?xml version="1.0" standalone="no"?>
<!DOCTYPE svg PUBLIC "-//W3C//DTD SVG 20010904//EN"
 "http://www.w3.org/TR/2001/REC-SVG-20010904/DTD/svg10.dtd">
<svg version="1.0" xmlns="http://www.w3.org/2000/svg"
 width="512.000000pt" height="512.000000pt" viewBox="0 0 512.000000 512.000000"
 preserveAspectRatio="xMidYMid meet">
<metadata>
Created by potrace 1.14, written by Peter Selinger 2001-2017
</metadata>
<g transform="translate(0.000000,512.000000) scale(0.100000,-0.100000)"
fill="#000000" stroke="none">
<path d="M945 3493 c-180 -15 -309 -69 -414 -174 -82 -83 -128 -178 -137 -288
l-6 -68 167 0 c117 -1 167 3 170 11 1 6 8 31 15 56 16 58 88 130 149 148 42
13 125 17 168 8 123 -26 187 -181 124 -304 -43 -84 -123 -136 -239 -155 -37
-6 -69 -12 -71 -14 -6 -5 -7 -234 -1 -238 3 -2 32 -6 65 -9 218 -23 339 -139
320 -306 -7 -67 -18 -91 -56 -134 -49 -56 -115 -84 -209 -90 -42 -2 -136 17
-169 34 -78 40 -134 119 -144 205 l-4 30 -182 3 -183 2 6 -59 c13 -125 66
-230 166 -331 76 -77 133 -111 247 -151 74 -25 139 -33 271 -31 234 2 418 82
527 228 59 78 86 152 92 249 13 212 -72 361 -262 455 l-84 42 59 30 c143 71
228 191 237 335 18 266 -186 479 -487 509 -78 8 -101 9 -135 7z"/>
<path d="M3988 3460 c-101 -34 -152 -64 -225 -133 -85 -81 -138 -187 -149
-303 l-7 -61 171 0 170 0 7 43 c7 50 52 116 98 144 57 36 152 51 222 36 78
-16 139 -82 151 -162 25 -166 -113 -295 -323 -303 -10 -1 -13 -33 -13 -126 0
-123 0 -125 23 -126 121 -3 244 -48 304 -109 42 -43 66 -124 60 -200 -7 -70
-24 -106 -72 -151 -110 -104 -336 -94 -441 20 -34 37 -64 105 -64 146 l0 35
-184 0 -184 0 4 -42 c7 -84 21 -132 62 -212 88 -169 272 -291 472 -314 258
-29 490 32 628 167 40 40 104 128 108 151 0 3 4 12 7 20 4 8 13 44 21 80 44
218 -51 407 -258 511 -76 38 -104 54 -81 48 26 -8 160 81 212 141 40 46 74
129 82 200 23 215 -105 407 -325 489 -83 32 -102 34 -254 37 -125 2 -142 0
-222 -26z"/>
<path d="M2794 3462 c-15 -2 -49 -42 -105 -123 -46 -66 -101 -144 -121 -172
-71 -100 -225 -318 -513 -730 -201 -288 -268 -383 -290 -412 -16 -20 -14 -20
434 -23 l449 -2 0 -133 c1 -72 1 -147 1 -165 l1 -32 187 2 188 3 0 160 0 160
140 5 141 5 0 153 0 152 -41 1 c-22 0 -84 0 -137 -1 -85 -1 -97 1 -101 17 -2
10 -4 267 -3 571 0 305 -1 557 -4 560 -5 7 -186 10 -226 4z m-118 -894 l-1
-293 -207 -1 c-115 -1 -208 0 -208 2 0 3 44 67 209 304 29 41 85 121 124 178
39 56 74 102 78 102 3 0 6 -132 5 -292z"/>
</g>
</svg>
