<svg width="134" height="48" viewBox="0 0 134 48" fill="none" xmlns="http://www.w3.org/2000/svg">
<g clip-path="url(#clip0_2_2)">
<path d="M9.648 26.724C11.544 26.724 13.236 26.472 14.724 25.968C16.212 25.464 17.388 24.732 18.252 23.772C19.116 22.788 19.548 21.612 19.548 20.244C19.548 18.972 19.224 17.82 18.576 16.788C17.928 15.756 16.98 14.928 15.732 14.304C14.508 13.68 13.02 13.368 11.268 13.368C9.612 13.368 8.16 13.692 6.912 14.34C5.664 14.988 4.68 15.876 3.96 17.004C3.264 18.108 2.916 19.38 2.916 20.82H7.704C7.704 19.884 8.04 19.116 8.712 18.516C9.408 17.892 10.26 17.58 11.268 17.58C11.988 17.58 12.576 17.7 13.032 17.94C13.488 18.18 13.836 18.528 14.076 18.984C14.316 19.44 14.436 19.968 14.436 20.568C14.436 21.048 14.316 21.516 14.076 21.972C13.86 22.404 13.548 22.8 13.14 23.16C12.732 23.496 12.228 23.76 11.628 23.952C11.052 24.144 10.392 24.24 9.648 24.24V26.724ZM11.052 39.504C12.924 39.504 14.544 39.204 15.912 38.604C17.304 37.98 18.372 37.116 19.116 36.012C19.884 34.908 20.268 33.636 20.268 32.196C20.268 30.924 20.004 29.844 19.476 28.956C18.948 28.044 18.204 27.3 17.244 26.724C16.284 26.124 15.156 25.692 13.86 25.428C12.588 25.164 11.184 25.032 9.648 25.032V27.768C10.536 27.768 11.316 27.864 11.988 28.056C12.684 28.224 13.26 28.476 13.716 28.812C14.196 29.148 14.556 29.568 14.796 30.072C15.036 30.552 15.156 31.08 15.156 31.656C15.156 32.448 14.988 33.108 14.652 33.636C14.316 34.164 13.848 34.572 13.248 34.86C12.672 35.124 11.988 35.256 11.196 35.256C10.428 35.256 9.72 35.112 9.072 34.824C8.424 34.512 7.908 34.068 7.524 33.492C7.14 32.916 6.948 32.22 6.948 31.404H1.836C1.836 32.484 2.052 33.516 2.484 34.5C2.916 35.46 3.528 36.324 4.32 37.092C5.112 37.836 6.072 38.424 7.2 38.856C8.328 39.288 9.612 39.504 11.052 39.504ZM22.0565 34.356H43.9445V29.964H38.7965L38.1845 30.504H29.1845L35.1245 22.008V32.268L34.6925 32.664V39H39.9845V13.8H36.4925L22.0565 34.356ZM54.9644 26.724C56.8604 26.724 58.5524 26.472 60.0404 25.968C61.5284 25.464 62.7044 24.732 63.5684 23.772C64.4324 22.788 64.8644 21.612 64.8644 20.244C64.8644 18.972 64.5404 17.82 63.8924 16.788C63.2444 15.756 62.2964 14.928 61.0484 14.304C59.8244 13.68 58.3364 13.368 56.5844 13.368C54.9284 13.368 53.4764 13.692 52.2284 14.34C50.9804 14.988 49.9964 15.876 49.2764 17.004C48.5804 18.108 48.2324 19.38 48.2324 20.82H53.0204C53.0204 19.884 53.3564 19.116 54.0284 18.516C54.7244 17.892 55.5764 17.58 56.5844 17.58C57.3044 17.58 57.8924 17.7 58.3484 17.94C58.8044 18.18 59.1524 18.528 59.3924 18.984C59.6324 19.44 59.7524 19.968 59.7524 20.568C59.7524 21.048 59.6324 21.516 59.3924 21.972C59.1764 22.404 58.8644 22.8 58.4564 23.16C58.0484 23.496 57.5444 23.76 56.9444 23.952C56.3684 24.144 55.7084 24.24 54.9644 24.24V26.724ZM56.3684 39.504C58.2404 39.504 59.8604 39.204 61.2284 38.604C62.6204 37.98 63.6884 37.116 64.4324 36.012C65.2004 34.908 65.5844 33.636 65.5844 32.196C65.5844 30.924 65.3204 29.844 64.7924 28.956C64.2644 28.044 63.5204 27.3 62.5604 26.724C61.6004 26.124 60.4724 25.692 59.1764 25.428C57.9044 25.164 56.5004 25.032 54.9644 25.032V27.768C55.8524 27.768 56.6324 27.864 57.3044 28.056C58.0004 28.224 58.5764 28.476 59.0324 28.812C59.5124 29.148 59.8724 29.568 60.1124 30.072C60.3524 30.552 60.4724 31.08 60.4724 31.656C60.4724 32.448 60.3044 33.108 59.9684 33.636C59.6324 34.164 59.1644 34.572 58.5644 34.86C57.9884 35.124 57.3044 35.256 56.5124 35.256C55.7444 35.256 55.0364 35.112 54.3884 34.824C53.7404 34.512 53.2244 34.068 52.8404 33.492C52.4564 32.916 52.2644 32.22 52.2644 31.404H47.1524C47.1524 32.484 47.3684 33.516 47.8004 34.5C48.2324 35.46 48.8444 36.324 49.6364 37.092C50.4284 37.836 51.3884 38.424 52.5164 38.856C53.6444 39.288 54.9284 39.504 56.3684 39.504ZM93.5809 28.416C93.5809 27.072 93.3889 25.932 93.0049 24.996C92.6449 24.036 92.0809 23.316 91.3129 22.836C90.5449 22.332 89.5489 22.08 88.3249 22.08C87.1969 22.08 86.1889 22.32 85.3009 22.8C84.4369 23.28 83.7049 23.988 83.1049 24.924C82.7449 23.988 82.1689 23.28 81.3769 22.8C80.5849 22.32 79.5769 22.08 78.3529 22.08C77.2489 22.08 76.3009 22.32 75.5089 22.8C74.7169 23.28 74.0809 23.976 73.6009 24.888V22.44H69.1009V39H73.6009V28.92C73.6009 28.2 73.7209 27.588 73.9609 27.084C74.2009 26.556 74.5369 26.172 74.9689 25.932C75.4009 25.668 75.9049 25.536 76.4809 25.536C77.3449 25.536 77.9689 25.824 78.3529 26.4C78.7369 26.952 78.9289 27.792 78.9289 28.92V39H83.5729V28.92C83.5729 28.2 83.6929 27.588 83.9329 27.084C84.1729 26.556 84.5089 26.172 84.9409 25.932C85.3729 25.668 85.8769 25.536 86.4529 25.536C87.3169 25.536 87.9409 25.824 88.3249 26.4C88.7089 26.952 88.9009 27.792 88.9009 28.92V39H93.5809V28.416ZM102.747 46.92V22.44H98.0671V46.92H102.747ZM116.355 30.72C116.355 28.824 115.983 27.228 115.239 25.932C114.495 24.612 113.511 23.616 112.287 22.944C111.087 22.272 109.791 21.936 108.399 21.936C106.983 21.936 105.747 22.296 104.691 23.016C103.659 23.736 102.855 24.756 102.279 26.076C101.727 27.372 101.451 28.92 101.451 30.72C101.451 32.496 101.727 34.044 102.279 35.364C102.855 36.684 103.659 37.704 104.691 38.424C105.747 39.144 106.983 39.504 108.399 39.504C109.791 39.504 111.087 39.168 112.287 38.496C113.511 37.824 114.495 36.828 115.239 35.508C115.983 34.188 116.355 32.592 116.355 30.72ZM111.531 30.72C111.531 31.704 111.327 32.544 110.919 33.24C110.511 33.936 109.959 34.464 109.263 34.824C108.591 35.184 107.847 35.364 107.031 35.364C106.335 35.364 105.651 35.196 104.979 34.86C104.331 34.5 103.791 33.972 103.359 33.276C102.951 32.58 102.747 31.728 102.747 30.72C102.747 29.712 102.951 28.86 103.359 28.164C103.791 27.468 104.331 26.952 104.979 26.616C105.651 26.256 106.335 26.076 107.031 26.076C107.847 26.076 108.591 26.256 109.263 26.616C109.959 26.976 110.511 27.504 110.919 28.2C111.327 28.896 111.531 29.736 111.531 30.72ZM120.659 33.276L118.391 36.192C119.015 36.792 119.711 37.356 120.479 37.884C121.271 38.388 122.147 38.796 123.107 39.108C124.091 39.42 125.171 39.576 126.347 39.576C128.243 39.576 129.731 39.12 130.811 38.208C131.891 37.272 132.431 35.976 132.431 34.32C132.431 33.312 132.203 32.496 131.747 31.872C131.291 31.248 130.679 30.732 129.911 30.324C129.167 29.892 128.351 29.508 127.463 29.172C126.743 28.86 126.095 28.596 125.519 28.38C124.967 28.164 124.535 27.924 124.223 27.66C123.935 27.372 123.791 27.048 123.791 26.688C123.791 26.28 123.935 25.98 124.223 25.788C124.535 25.572 124.955 25.464 125.483 25.464C126.275 25.464 127.079 25.668 127.895 26.076C128.735 26.484 129.455 27.012 130.055 27.66L132.107 24.78C131.579 24.252 130.967 23.796 130.271 23.412C129.575 23.004 128.819 22.68 128.003 22.44C127.187 22.2 126.311 22.08 125.375 22.08C124.271 22.08 123.263 22.26 122.351 22.62C121.463 22.956 120.755 23.472 120.227 24.168C119.699 24.84 119.435 25.668 119.435 26.652C119.435 27.684 119.663 28.536 120.119 29.208C120.599 29.856 121.199 30.384 121.919 30.792C122.639 31.176 123.383 31.512 124.151 31.8C124.967 32.064 125.639 32.316 126.167 32.556C126.695 32.796 127.091 33.072 127.355 33.384C127.643 33.672 127.787 34.032 127.787 34.464C127.787 34.944 127.619 35.328 127.283 35.616C126.947 35.88 126.467 36.012 125.843 36.012C125.363 36.012 124.847 35.916 124.295 35.724C123.767 35.532 123.203 35.244 122.603 34.86C122.003 34.452 121.355 33.924 120.659 33.276Z" fill="url(#paint0_radial_2_2)"/>
</g>
<defs>
<radialGradient id="paint0_radial_2_2" cx="0" cy="0" r="1" gradientUnits="userSpaceOnUse" gradientTransform="translate(134 38.6286) rotate(-171.497) scale(150.713 378.398)">
<stop stop-color="#A027B4"/>
<stop offset="1" stop-color="#0EA5BA"/>
</radialGradient>
<clipPath id="clip0_2_2">
<rect width="134" height="48" fill="white"/>
</clipPath>
</defs>
</svg>
